<?xml version="1.0" encoding="UTF-8" standalone="no"?>
<!DOCTYPE svg PUBLIC "-//W3C//DTD SVG 1.1//EN" "http://www.w3.org/Graphics/SVG/1.1/DTD/svg11.dtd">
<svg width="100%" height="100%" viewBox="0 0 1000 1000" version="1.1" xmlns="http://www.w3.org/2000/svg" xmlns:xlink="http://www.w3.org/1999/xlink" xml:space="preserve" style="fill-rule:evenodd;clip-rule:evenodd;stroke-linejoin:round;stroke-miterlimit:1.41421;">
    <g transform="matrix(3.23549,0,0,3.69157,-543.255,-840.62)">
        <path d="M168.006,351.507C175.225,351.319 181.108,349.374 185.654,345.671C190.201,341.968 193.225,336.882 194.725,330.413C196.225,323.944 197.022,312.882 197.115,297.225C197.209,281.569 197.49,271.257 197.959,266.288C198.803,258.413 200.373,252.085 202.67,247.303C204.967,242.522 207.803,238.702 211.178,235.843C214.553,232.983 218.865,230.803 224.115,229.303C227.678,228.366 233.49,227.897 241.553,227.897L249.428,227.897L249.428,249.975L245.069,249.975C235.319,249.975 228.85,251.733 225.662,255.249C222.475,258.764 220.881,266.616 220.881,278.803C220.881,303.366 220.365,318.882 219.334,325.35C217.647,335.382 214.764,343.116 210.686,348.553C206.608,353.991 200.209,358.819 191.49,363.038C201.803,367.35 209.279,373.936 213.92,382.796C218.561,391.655 220.881,406.163 220.881,426.319C220.881,444.6 221.069,455.475 221.444,458.944C222.194,465.319 224.092,469.772 227.139,472.303C230.186,474.835 236.162,476.1 245.069,476.1L249.428,476.1L249.428,498.178L241.553,498.178C232.365,498.178 225.709,497.428 221.584,495.928C215.584,493.772 210.615,490.28 206.678,485.452C202.74,480.624 200.186,474.507 199.014,467.1C197.842,459.694 197.209,447.553 197.115,430.678C197.022,413.803 196.225,402.132 194.725,395.663C193.225,389.194 190.201,384.085 185.654,380.335C181.108,376.585 175.225,374.616 168.006,374.428L168.006,351.507Z" style="fill:black;fill-rule:nonzero;"/>
    </g>
    <g transform="matrix(-3.24175,0,0,3.69872,1544.56,-844.182)">
        <path d="M168.006,351.507C175.225,351.319 181.108,349.374 185.654,345.671C190.201,341.968 193.225,336.882 194.725,330.413C196.225,323.944 197.022,312.882 197.115,297.225C197.209,281.569 197.49,271.257 197.959,266.288C198.803,258.413 200.373,252.085 202.67,247.303C204.967,242.522 207.803,238.702 211.178,235.843C214.553,232.983 218.865,230.803 224.115,229.303C227.678,228.366 233.49,227.897 241.553,227.897L249.428,227.897L249.428,249.975L245.069,249.975C235.319,249.975 228.85,251.733 225.662,255.249C222.475,258.764 220.881,266.616 220.881,278.803C220.881,303.366 220.365,318.882 219.334,325.35C217.647,335.382 214.764,343.116 210.686,348.553C206.608,353.991 200.209,358.819 191.49,363.038C201.803,367.35 209.279,373.936 213.92,382.796C218.561,391.655 220.881,406.163 220.881,426.319C220.881,444.6 221.069,455.475 221.444,458.944C222.194,465.319 224.092,469.772 227.139,472.303C230.186,474.835 236.162,476.1 245.069,476.1L249.428,476.1L249.428,498.178L241.553,498.178C232.365,498.178 225.709,497.428 221.584,495.928C215.584,493.772 210.615,490.28 206.678,485.452C202.74,480.624 200.186,474.507 199.014,467.1C197.842,459.694 197.209,447.553 197.115,430.678C197.022,413.803 196.225,402.132 194.725,395.663C193.225,389.194 190.201,384.085 185.654,380.335C181.108,376.585 175.225,374.616 168.006,374.428L168.006,351.507Z" style="fill:black;fill-rule:nonzero;"/>
    </g>
    <g transform="matrix(3.43763,0,0,3.43763,-1197.05,-549.388)">
        <path d="M473.541,358.663C473.541,365.767 475.509,370.999 479.445,374.359C483.381,377.719 488.037,379.399 493.413,379.399C496.101,379.399 498.213,379.015 499.749,378.247L486.501,367.591L501.477,349.735L513.285,359.239L513.285,358.663L513.285,250.375C513.285,243.271 511.317,238.039 507.381,234.679C503.445,231.319 498.789,229.639 493.413,229.639C488.037,229.639 483.381,231.319 479.445,234.679C475.509,238.039 473.541,243.271 473.541,250.375L473.541,358.663ZM444.165,250.375C444.165,242.119 445.605,234.823 448.485,228.487C451.365,222.151 455.205,216.871 460.005,212.647C464.613,208.615 469.845,205.543 475.701,203.431C481.557,201.319 487.461,200.263 493.413,200.263C499.365,200.263 505.269,201.319 511.125,203.431C516.981,205.543 522.309,208.615 527.109,212.647C531.717,216.871 535.461,222.151 538.341,228.487C541.221,234.823 542.661,242.119 542.661,250.375L542.661,358.663C542.661,366.727 541.221,373.735 538.341,379.687L556.485,394.375L541.509,412.231L524.229,398.119C515.397,405.223 505.125,408.775 493.413,408.775C487.461,408.775 481.557,407.719 475.701,405.607C469.845,403.495 464.613,400.327 460.005,396.103C455.205,392.071 451.365,386.983 448.485,380.839C445.605,374.695 444.165,367.303 444.165,358.663L444.165,250.375Z" style="fill:black;fill-rule:nonzero;"/>
    </g>
</svg>
